<svg width="544" height="85" viewBox="0 0 544 85" fill="none" xmlns="http://www.w3.org/2000/svg">
<g clip-path="url(#clip0_321_36)">
<path fill-rule="evenodd" clip-rule="evenodd" d="M22.6 38.4C23 36.6 23.5 33.2 23.9 31.2L25.1 23.9H38.1C38.1 24.4 37.9 25 37.8 25.5L36 36.8C35.7 38.8 36.2 38.4 33.9 38.4H22.6ZM133.9 76.2C132.6 76.2 130.8 75.8 130 75.3V81.5C131.6 82.2 133.3 82.3 135 82.3C136.6 82.3 138.6 81.5 139.7 81C140 80.9 140.3 80.6 140.6 80.5C146.8 76.5 148.6 69.2 151.3 62.5L153.9 56C154.2 55.3 154.5 54.6 154.7 53.8C155.9 50.5 157.7 46.4 158.9 43C159 42.6 159.2 42.3 159.3 41.9C159.4 41.5 159.6 41.2 159.7 40.8C162.3 34.4 164.8 27.7 167.4 21.2L168.2 19H161.5C161.2 19.7 160.9 20.5 160.6 21.3C160.3 22.1 160 22.8 159.7 23.6C159.4 24.3 159.1 25.1 158.8 25.9C158.6 26.3 158.5 26.7 158.4 27C158.2 27.4 158.1 27.7 157.9 28.2L156.1 32.8C155 35.7 153.5 39.2 152.5 42C151.5 44.9 150 48.3 148.9 51.2C148.8 51.6 148.6 51.9 148.5 52.3C148.3 52.7 148.2 53.1 148 53.5C147.9 53.9 147.7 54.2 147.6 54.6C147.5 55 147.2 55.5 147.2 55.8C146.8 55.5 143.7 47 143.5 46.6L132.7 18.8H125.1C125.2 19.1 125.3 19.4 125.4 19.7C125.6 20.1 125.6 20.3 125.8 20.7C126.1 21.3 126.4 22 126.6 22.6L134.5 41.7C135.5 44.3 136.6 46.8 137.7 49.4L140 55.1C140.3 55.8 140.5 56.4 140.8 57L143.9 64.6C144 65 142.4 68.7 142.1 69.4C140.6 73 138.6 76.2 133.9 76.2ZM180 43.1C180 39.2 180 37.8 181 34.1C181.5 32.1 182.4 30.3 183.5 28.9C185.4 26.5 187.7 25.1 190.7 24.6C193.2 24.1 195.3 24.2 197.9 24.6C201.1 25.1 203.6 26.6 205.5 29.1C209 33.8 209.4 43.2 207.9 49.2C207.5 50.8 206.9 52.7 206 54.1C203.6 57.7 201.1 59.3 196.8 59.8C192.1 60.3 186.5 59.5 183.6 55.5C181.6 52.6 180 47.9 180 43.1ZM193.5 66C197.6 66 200.8 65.7 204.2 64.1C205.6 63.4 207.1 62.5 208.2 61.4C208.5 61.1 208.6 61.1 208.9 60.8C210.8 58.9 212.1 56.8 213.2 54.3L214 52.3C215.3 48 215.4 45.7 215.4 40.9C215.4 36.4 214.5 32.5 212.9 28.7C212.7 28.3 212.7 28.1 212.5 27.8C212.2 27.2 211.9 26.7 211.5 26.1C210.6 24.8 210.2 24.3 209.1 23.2C205.7 19.8 200.4 18.1 195.4 18.1C191.2 18.1 187.7 18.3 184.1 20.1C182.8 20.8 181.8 21.3 180.7 22.2C177.4 24.9 175.7 28.1 174.4 32.4C173.9 34.1 173.4 37.7 173.4 39.6C173.4 40.6 173.3 41.3 173.3 42.2C173.3 42.7 173.4 42.9 173.4 43.5C173.4 45.2 173.5 45.6 173.7 47.3C174.2 52 176.2 57.4 179.5 60.7C180.8 62 182.7 63.3 184.4 64.1C186.7 65.2 190.1 66 193.5 66ZM98.1 11.6C98.3 11.9 99.2 14.4 99.4 15L108 37.4C108.2 38 108.4 38.6 108.7 39.1H87.5C87.6 38.6 87.9 37.9 88.1 37.4C88.3 36.8 88.5 36.3 88.8 35.7C89.2 34.6 89.7 33.4 90.1 32.2L92.7 25.3C93.1 24.1 93.5 23 94 21.9L97.7 12.4C97.9 12.3 98 11.9 98.1 11.6ZM70.5 64.6H77.7L79.5 59.8C80.1 58.2 80.7 56.6 81.3 55.1L84.5 46.8C84.7 46.4 84.8 46 84.9 45.6H111.1L118.4 64.6H125.5L101.4 3.5H94.7C94.6 3.8 94.5 4.1 94.4 4.4L75 53.1C74 55.7 72.5 59.1 71.6 61.6C71.3 62.4 70.5 64 70.5 64.6ZM447.8 22.2V64.6H459.4V29C459.4 28.7 459.9 28.6 460.2 28.5C460.6 28.4 460.8 28.3 461.2 28.2C461.9 28 462.6 27.8 463.3 27.7C470.5 26.3 478 27.2 478 36.3V64.7H489.6V32.7C489.6 29 488.5 25.6 486.5 22.9C485.8 22 485.5 21.9 484.9 21.3C484.7 21.1 484.5 21 484.3 20.8C478.3 16.4 468.3 16.9 461.1 18.2C457.1 18.9 452.6 20 449 21.7C448.6 21.9 448.2 22.1 447.8 22.2ZM299.8 50.6C299.8 48.3 300.7 46.8 302.5 45.6C305.2 43.9 311.1 44 314.4 44.7C316.5 45.1 317.2 45.5 318.1 45.7C318.1 47.3 318.1 48.9 318.1 50.5C318.1 54.2 318.8 56 314.9 56.9C312.4 57.4 307.5 57.6 305 56.7C303.3 56.1 301.7 55.1 300.7 53.5C300.2 52.9 299.8 51.7 299.8 50.6ZM292.5 21.1V31.8C292.7 31.7 292.9 31.5 293.2 31.3C293.4 31.1 293.7 31 293.9 30.8C294.4 30.5 294.9 30.2 295.4 29.9C295.7 29.7 295.9 29.7 296.2 29.5C299.8 28 303.1 27 307.2 27C311.9 27 316.8 28.4 317.8 33.5C318.1 35 318 37.3 318 39.1C317.2 38.7 316.4 38.2 315.4 37.9C309.4 35.5 300.9 35.1 295 38C292.7 39.1 290.5 41.2 289.5 43.6C288.1 46.8 288.2 48.2 288.2 51.7C288.2 54 288.9 56.7 289.8 58.2C290.3 59.1 290.8 59.9 291.5 60.6C292.1 61.3 292.9 62 293.7 62.5C295.4 63.7 297.2 64.4 299.4 65C300.4 65.3 301.8 65.5 302.9 65.6C309.1 66.3 320.3 66 325.2 62.7C326.4 61.9 327.2 61.3 328.1 60C329.5 57.9 329.5 55.9 329.5 53.2C329.5 49.5 329.5 45.8 329.5 42.1L329.6 34C329.6 29.7 329.1 26.6 326.5 23.3C320.2 15.2 304.7 16.6 296.3 19.4C295.6 19.6 295 19.9 294.3 20.2L292.5 21.1ZM405.2 50.6C405.2 45 410.5 44.2 415.3 44.2C416.8 44.2 418.4 44.4 419.7 44.6L422.5 45.3C422.9 45.4 423.1 45.6 423.4 45.6C423.4 47.2 423.4 48.8 423.4 50.4C423.4 51.9 423.6 53.8 423.1 54.9C422 57.4 415.8 57.1 413.3 57.1C409.5 57.3 405.2 54.8 405.2 50.6ZM397.9 21.1V31.8C398.2 31.7 398.4 31.5 398.6 31.3C401.2 29.4 405.1 28 408.2 27.4C413.7 26.4 422 26.7 423.2 33.5C423.5 35 423.4 37.3 423.4 39.1C418.5 36.5 415.1 36 409.4 36C405.3 36 401.3 37.1 398.2 39.5C395.3 41.7 393.6 45.8 393.6 49.6C393.6 51.8 393.5 53.2 394.1 55.4C395.9 62 401.8 65 408.3 65.7C414.2 66.4 423.9 66 428.8 63.7C430.7 62.8 432.3 61.8 433.5 60.1C434.9 58.1 434.9 55.9 434.9 53.3C434.9 49.6 434.9 45.9 434.9 42.2C434.9 32.2 436.3 25.9 429.1 20.7C428 19.9 426.9 19.4 425.5 18.8C424.2 18.3 422.8 17.9 421.2 17.7C414.8 16.7 407.6 17.5 401.7 19.4C401 19.6 399.4 20.2 398.8 20.6C398.5 20.8 398.2 21.1 397.9 21.1ZM532.3 54.5C531.7 54.6 531 55.2 530.4 55.4C527.5 56.6 523.7 57.2 520.6 56.6C510.1 54.6 510.5 37.5 514.2 31.5C514.6 30.9 515 30.5 515.4 29.9L516.1 29.2C517.2 28.2 519.3 27.4 521 27.1C524 26.6 530.5 26.6 531.8 29.7C532.1 30.3 532.2 31.3 532.3 32.1C532.4 35.8 532.3 39.6 532.3 43.3C532.3 47 532.3 50.8 532.3 54.5ZM500 41.9C500 47.1 500.5 52.4 503 56.6L504 58.2C504.2 58.5 504.4 58.7 504.6 59C505.2 59.7 505.8 60.5 506.6 61.1C508.6 62.7 508.7 62.9 511.5 64.2C514.2 65.4 517.7 66 521.2 66C525.3 66 529 64.5 532.3 62.4C532.3 67.4 532.2 71.8 526.5 73.6C522.4 74.9 516 74.2 512 73.2C510.5 72.8 506.6 71.7 505.2 71V81.6C506.8 82.4 510.3 83.1 512.2 83.5C515.3 84.1 518.5 84.2 521.9 84.2C529.6 84.2 537.2 81.8 540.9 76.1C542.6 73.5 543.7 70.1 543.7 66.5V28.8C543.7 24.8 540.9 21.5 537.6 19.9C531.8 17 525.9 16.9 519.5 17.6C517.8 17.8 515.8 18.2 514.3 18.6C512.7 19.1 511.4 19.6 509.9 20.4C505.7 22.9 503.1 26.2 501.6 30.9C500.6 34.1 500 37.9 500 41.9ZM351.7 43C351.7 39.6 351.9 38 352.6 34.9C353.1 32.8 354.1 31.1 355.4 29.8C356.8 28.4 358.3 27.6 360.6 27.2C362.7 26.8 365.7 26.8 367.8 27.3C368.9 27.5 369.7 27.9 370.6 28.4C371.4 29 371.8 29.7 372.1 30.8C372.4 32.2 372.2 36.8 372.2 38.6C372.2 43.9 372.2 49.2 372.2 54.5C371.6 54.6 368.6 56.9 363 56.9C357.7 56.9 354 53.6 352.5 48.6C352 46.9 351.7 45.1 351.7 43ZM339.8 42.9C339.8 44.3 339.9 45.4 340 46.7C340.2 51.2 342.1 56.3 344.9 59.6C348.7 64.1 355.1 66 361.2 66C363.3 66 365.6 65.4 367.2 64.9L372 62.5C372 67.2 372.2 70.4 368.1 72.8C367.5 73.2 366.9 73.4 366.1 73.7C360.9 75.3 353.1 73.9 348.4 72.3C347.4 72 345.9 71.6 345.1 71.1V81.7C346.2 82.3 348.8 82.9 350.1 83.2C350.7 83.3 351.4 83.5 351.9 83.6C358.8 84.8 368 84.8 374.2 81.7C380.6 78.5 383.5 73 383.5 65.5V29.5C383.5 28.2 383.3 27.2 383 26.2C382.7 25.2 382.3 24.4 381.7 23.6C378.5 18.7 370.4 17.3 364.9 17.3C358.1 17.3 350.6 18.6 345.6 23.5C341 28.3 339.8 36.1 339.8 42.9ZM249.8 54.5H239.6V13.5C243.4 13.5 247.7 13.3 251.3 13.6C255.1 13.9 259.2 15.3 261.9 17.9C262.4 18.4 262.9 18.9 263.3 19.5C266.3 23.8 267 28.5 267 34.2C267 42.1 265.1 49.6 257.6 52.9C255.6 53.8 252.6 54.5 249.8 54.5ZM227 64.6H251.3C255.2 64.6 260.4 63.8 263.9 62.5C269 60.5 272.2 58 275.2 53.5C277 50.7 278.1 47.5 278.8 44.2C280.7 35.9 280.1 24.2 276.4 16.8L275 14.4C273.8 12.6 272.2 10.7 270.6 9.4C269.9 8.8 269.2 8.3 268.4 7.8C263.1 4.6 256.9 3.5 250.1 3.5H227.1L227 64.6ZM14.9 12.6H3.3V23.9H13.2C13.2 24.4 13 25.1 12.9 25.7C12.8 26.3 12.7 26.9 12.6 27.5L10.7 38.4H0V49.7H8.9L6.9 60.7C6.8 61.3 6.6 61.8 6.6 62.4H16.6C17 62.4 17.9 62.5 18.3 62.4C18.7 62.4 18.6 62.4 18.7 62C19.2 59.6 19.8 55.4 20.2 52.7C20.4 51.7 20.5 50.7 20.7 49.8H33.8C33.6 50.8 33.4 52 33.2 52.9L31.5 62.4H43.5L45.7 49.8H56.2V38.4H47.6C48.2 35.7 48.9 30.6 49.5 27.6L50.1 23.9H59.4V12.6H52C52 12 52.4 10.2 52.5 9.4L54 1.6C54.1 1.1 54.3 0.5 54.3 0H42.3L40.3 11.2C40.2 11.4 40.2 11.7 40.2 12C40.2 12.3 40.2 12.6 39.9 12.6H27.1L27.6 9.5C27.8 8.5 27.9 7.4 28.2 6.3L29.3 0H17.3L15.3 11.2C15.2 12.1 15.3 12.6 14.9 12.6Z" fill="white"/>
</g>
<defs>
<clipPath id="clip0_321_36">
<rect width="543.8" height="84.3" fill="white"/>
</clipPath>
</defs>
</svg>
