<svg width="232" height="72" viewBox="0 0 232 72" fill="none" xmlns="http://www.w3.org/2000/svg">
<path d="M86.7528 28.5239L88.2144 26.8788L93.4018 33.0477H95.3794L89.2175 25.7919L94.9208 19.388H93.0866L86.7528 26.5851V19.388H85.3198V33.0477H86.7528V28.5239Z" fill="white"/>
<path d="M106.901 31.6671H99.9076V26.9376H106.069V25.4982H99.9076V20.7687H106.901V19.388H98.4746V33.0477H106.901V31.6671Z" fill="white"/>
<path d="M112.432 21.7968L116.989 28.7589L121.861 21.7674V33.0477H123.294V19.388H121.746L117.075 26.4969L112.546 19.388H110.97V33.0477H112.432V21.7968Z" fill="white"/>
<path d="M136.019 31.6671H129.026V26.9376H135.159V25.4982H129.026V20.7687H136.019V19.388H127.564V33.0477H136.019V31.6671Z" fill="white"/>
<path d="M141.521 21.5324L149.517 33.0477H151.151V19.388H149.689V30.9033L141.722 19.388H140.088V33.0477H141.521V21.5324Z" fill="white"/>
<path d="M160.294 33.0477V20.7687H164.994V19.388H154.132V20.7687H158.832V33.0477H160.294Z" fill="white"/>
<path d="M176.4 31.6671H169.407V26.9376H175.569V25.4982H169.407V20.7687H176.4V19.388H167.974V33.0477H176.4V31.6671Z" fill="white"/>
<path d="M181.932 27.5545H185.342L188.839 33.0771H190.529L186.89 27.4076C187.32 27.3489 187.721 27.1726 188.093 26.967C188.667 26.6145 189.125 26.1151 189.44 25.4982C189.756 24.8519 189.928 24.1175 189.928 23.3831C189.928 22.0612 189.584 21.0918 188.924 20.4162C188.265 19.7405 187.291 19.4174 185.973 19.4468H180.499V33.1359H181.932V27.5545ZM181.932 20.7687H185.801C186.832 20.7687 187.52 21.0037 187.893 21.5031C188.294 22.0612 188.495 22.7662 188.466 23.4713C188.466 24.3525 188.208 24.9988 187.721 25.4688C187.234 25.9388 186.431 26.1445 185.313 26.1445H181.932V20.7687Z" fill="white"/>
<path d="M195.43 19.388H193.997V33.0771H195.43V19.388Z" fill="white"/>
<path d="M201.592 28.7882H207.353L208.958 33.0477H210.505L205.203 19.388H203.77L198.44 33.0771H199.987L201.592 28.7882ZM204.458 21.1212L206.808 27.3782H202.108L204.458 21.1212Z" fill="white"/>
<path d="M214.919 21.5324L222.915 33.0477H224.52V19.388H223.087V30.9033L215.119 19.388H213.486V33.0477H214.919V21.5324Z" fill="white"/>
<path d="M93.4878 37.4835C92.6854 36.7491 91.539 36.3966 90.0487 36.3966H85.3198V50.0857H86.7528V44.8568H90.0487C91.539 44.8568 92.6854 44.5043 93.4878 43.7699C94.2903 43.0355 94.6915 42.0074 94.6629 40.6267C94.6915 39.2461 94.2903 38.2179 93.4878 37.4835ZM93.1439 41.5961C93.0579 41.9193 92.9146 42.2424 92.6854 42.5068C92.3988 42.8299 92.0548 43.0355 91.6823 43.1824C91.1091 43.3587 90.5072 43.4468 89.9054 43.4174H86.7815V37.8066H89.9054C90.5072 37.7773 91.1091 37.8654 91.6823 38.0416C92.0835 38.1592 92.4274 38.3942 92.6854 38.7173C92.9146 38.9817 93.0579 39.3048 93.1439 39.6573C93.2872 40.3036 93.2872 40.9792 93.1439 41.5961Z" fill="white"/>
<path d="M105.811 48.7051H98.8471V43.9462H104.98V42.5068H98.8471V37.8066H105.811V36.3966H97.3855V50.0857H105.811V48.7051Z" fill="white"/>
<path d="M116.416 43.9462C116.989 43.5937 117.447 43.0943 117.763 42.4774C118.107 41.8311 118.25 41.0967 118.25 40.3623C118.25 39.0404 117.906 38.0416 117.247 37.3954C116.588 36.7491 115.613 36.3966 114.295 36.3966H108.821V50.0857H110.254V44.5924H113.664L117.161 50.1151H118.852L115.212 44.3868C115.642 44.3281 116.043 44.1812 116.416 43.9462ZM110.254 37.7773H114.123C115.155 37.7773 115.842 38.0123 116.215 38.5117C116.616 39.0698 116.817 39.7748 116.788 40.4798C116.788 41.3611 116.53 42.0074 116.043 42.4774C115.556 42.9474 114.753 43.153 113.636 43.153H110.254V37.7773Z" fill="white"/>
<path d="M121.259 50.0857H125.443C127.536 50.0857 129.083 49.4982 130.144 48.3525C131.204 47.2069 131.72 45.5031 131.72 43.2118C131.72 40.9499 131.204 39.2461 130.144 38.1004C129.083 36.9547 127.536 36.3966 125.443 36.3966H121.259V50.0857ZM122.692 37.7773H125.329C127.048 37.7773 128.281 38.2179 129.054 39.0992C129.828 39.9805 130.23 41.3611 130.201 43.2412C130.201 45.1212 129.8 46.5019 129.054 47.3831C128.281 48.2644 127.048 48.7051 125.329 48.7051H122.692V37.7773Z" fill="white"/>
<path d="M134.672 50.0857L136.277 45.8262H142.037L143.642 50.0857H145.19L139.859 36.3966H138.426L133.095 50.0857H134.672ZM139.143 38.1592L141.493 44.4162H136.793L139.143 38.1592Z" fill="white"/>
<path d="M152.441 44.4749H155.651V48.3819C155.163 48.5581 154.676 48.6756 154.16 48.7638C153.645 48.8519 153.129 48.8813 152.584 48.8813C151.638 48.9106 150.664 48.705 149.804 48.2644C149.059 47.8531 148.486 47.2069 148.171 46.3843C147.798 45.3562 147.626 44.2987 147.655 43.2118C147.626 42.1248 147.798 41.0379 148.171 40.0392C148.486 39.246 149.059 38.5998 149.775 38.1885C150.635 37.7479 151.581 37.5422 152.555 37.5716C153.272 37.5716 153.96 37.6891 154.648 37.8947C155.307 38.1004 155.966 38.3647 156.596 38.6291V37.1016C155.937 36.7785 155.249 36.5435 154.562 36.3966C153.845 36.2497 153.129 36.1616 152.412 36.1616C151.237 36.1322 150.033 36.3966 149.002 36.9547C148.085 37.4835 147.339 38.306 146.938 39.3048C146.451 40.5386 146.193 41.8605 146.25 43.2118C146.222 44.563 146.451 45.8849 146.938 47.1187C147.368 48.1175 148.085 48.94 149.002 49.4688C150.062 50.0269 151.237 50.2913 152.412 50.2619C153.215 50.2619 154.017 50.1738 154.82 49.9975C155.593 49.8213 156.367 49.5569 157.084 49.2044V43.0355H152.412V44.4749H152.441Z" fill="white"/>
<path d="M162.185 45.8262H167.946L169.551 50.0857H171.098L165.796 36.3966H164.363L159.032 50.0857H160.609L162.185 45.8262ZM165.08 38.1592L167.43 44.4162H162.73L165.08 38.1592Z" fill="white"/>
<path d="M174.623 36.3966H172.99V50.0857H174.423V38.541L182.419 50.0857H184.024V36.3966H182.591V47.9119L174.623 36.3966Z" fill="white"/>
<path d="M192.937 44.4749H196.147V48.3819C195.66 48.5581 195.144 48.6756 194.657 48.7344C194.141 48.8225 193.625 48.8519 193.08 48.8519C192.134 48.8813 191.16 48.6756 190.3 48.235C189.555 47.8237 189.011 47.1775 188.695 46.3843C188.323 45.3562 188.151 44.2987 188.179 43.2118C188.151 42.1248 188.323 41.0379 188.695 40.0392C189.011 39.246 189.584 38.5998 190.3 38.1885C191.16 37.7479 192.106 37.5422 193.08 37.5716C193.797 37.5716 194.485 37.6891 195.172 37.8947C195.832 38.1004 196.491 38.3647 197.121 38.6291V37.1016C196.462 36.7785 195.774 36.5435 195.086 36.3966C194.37 36.2497 193.653 36.1616 192.937 36.1616C191.762 36.1322 190.587 36.3966 189.526 36.9547C188.609 37.4835 187.864 38.306 187.463 39.3048C186.976 40.5386 186.718 41.8605 186.775 43.2118C186.746 44.563 186.976 45.8849 187.463 47.1187C187.893 48.1175 188.609 48.94 189.526 49.4688C190.587 50.0269 191.762 50.2913 192.937 50.2619C193.739 50.2619 194.542 50.1738 195.344 49.9975C196.118 49.8213 196.892 49.5569 197.608 49.2044V43.0355H192.937V44.4749Z" fill="white"/>
<path d="M204.802 36.3966L199.471 50.0857H201.048L202.653 45.8262H208.413L210.018 50.0857H211.566L206.264 36.3966H204.802ZM203.197 44.3868L205.547 38.1298L207.897 44.3868H203.197Z" fill="white"/>
<path d="M214.89 38.541L222.886 50.0857H224.491V36.3966H223.058V47.9119L215.091 36.3966H213.457V50.0857H214.89V38.541Z" fill="white"/>
<path d="M90.5072 59.574C90.8224 59.339 91.0804 59.0453 91.2523 58.6634C91.4243 58.2815 91.5103 57.8702 91.5103 57.459C91.5103 56.6365 91.281 55.9902 90.8224 55.5789C90.3639 55.1677 89.7334 54.962 88.8736 54.962H85.2625V63.2754H86.6095V60.1322H88.329L90.2206 63.2754H91.8828L89.7047 59.8972C90.02 59.8678 90.2779 59.7503 90.5072 59.574ZM86.6381 56.1371H88.7589C89.1602 56.1077 89.5327 56.2252 89.8193 56.5189C90.0486 56.8127 90.1633 57.1946 90.1346 57.5765C90.1633 57.9877 90.02 58.399 89.7334 58.6634C89.3894 58.9278 88.9595 59.0453 88.5297 59.0159H86.6381V56.1371Z" fill="white"/>
<path d="M94.3477 63.3048H99.6783V62.1298H95.6947V59.721H99.1625V58.5459H95.7233V56.1371H99.6783V54.9915H94.3477V63.3048Z" fill="white"/>
<path d="M107.818 55.6377C107.302 55.1971 106.585 54.9915 105.668 54.9915H102.458V63.3048H103.805V60.3378H105.668C106.585 60.3378 107.302 60.1028 107.818 59.6328C108.333 59.1041 108.62 58.3697 108.563 57.6353C108.591 56.7246 108.333 56.0784 107.818 55.6377ZM107.13 58.2228C107.072 58.399 106.986 58.5753 106.872 58.6928C106.729 58.8397 106.557 58.9572 106.356 59.0159C106.069 59.1041 105.783 59.1334 105.496 59.1334H103.805V56.1371H105.496C105.783 56.1371 106.069 56.1665 106.356 56.2546C106.557 56.3134 106.729 56.4309 106.872 56.6071C106.986 56.754 107.072 56.9303 107.13 57.1065C107.187 57.2828 107.187 57.4884 107.187 57.6647C107.187 57.8409 107.158 58.0172 107.13 58.2228Z" fill="white"/>
<path d="M116.53 60.0147C116.53 60.8079 116.358 61.366 116.014 61.7479C115.613 62.1591 115.069 62.3648 114.524 62.306C113.98 62.3354 113.435 62.1298 113.034 61.7479C112.69 61.366 112.547 60.7785 112.547 60.0147V54.9915H111.171V60.0441C111.171 61.1897 111.457 62.0416 112.059 62.6292C112.633 63.2167 113.492 63.5104 114.581 63.4811C115.183 63.5104 115.785 63.3636 116.33 63.0992C116.817 62.8348 117.218 62.4529 117.447 61.9535C117.734 61.366 117.877 60.7197 117.849 60.0441V54.9915H116.559L116.53 60.0147Z" fill="white"/>
<path d="M126.017 59.0746C125.873 58.9865 125.701 58.8984 125.529 58.8396L125.816 58.634C126.017 58.4871 126.189 58.3109 126.303 58.1052C126.447 57.8409 126.532 57.5177 126.504 57.224C126.504 56.8127 126.418 56.4014 126.217 56.0196C126.017 55.6671 125.673 55.4027 125.3 55.2558C124.784 55.0502 124.24 54.962 123.695 54.9914H120.686V63.3048H123.982C124.498 63.3048 125.042 63.2166 125.529 63.0697C125.959 62.9229 126.332 62.6585 126.59 62.2766C126.848 61.8653 126.991 61.3953 126.962 60.8959C126.962 60.5141 126.876 60.1322 126.676 59.7797C126.532 59.4859 126.303 59.2509 126.017 59.0746ZM122.062 56.1371H123.781C124.125 56.1077 124.498 56.1958 124.784 56.4014C125.214 56.8421 125.3 57.5177 124.985 58.0465C124.87 58.1934 124.698 58.3109 124.498 58.3696C124.297 58.4284 124.096 58.4577 123.896 58.4577H122.062V56.1371ZM125.386 61.6597C125.243 61.8653 125.014 61.9828 124.784 62.071C124.526 62.1297 124.268 62.1885 123.982 62.1885H122.062V59.6034H123.953C124.154 59.6034 124.354 59.6328 124.555 59.6328C124.756 59.6622 124.928 59.7209 125.099 59.809C125.271 59.8972 125.386 60.0147 125.472 60.1909C125.673 60.6316 125.644 61.1897 125.386 61.6597Z" fill="white"/>
<path d="M130.917 54.9915H129.542V63.3048H134.758V62.1298H130.917V54.9915Z" fill="white"/>
<path d="M138.398 54.9915H137.051V63.3048H138.398V54.9915Z" fill="white"/>
<path d="M147.597 54.9915H145.906L142.639 59.0159V54.9915H141.292V63.3048H142.639V60.6022L143.384 59.7503L146.107 63.3048H147.855L144.301 58.7222L147.597 54.9915Z" fill="white"/>
<path d="M155.937 54.9915H154.59V63.3048H155.937V54.9915Z" fill="white"/>
<path d="M164.449 61.1016L160.122 54.9915H158.832V63.3048H160.122V57.1065L164.507 63.3048H165.71V54.9915H164.449V61.1016Z" fill="white"/>
<path d="M171.471 54.9915H168.634V63.3048H171.471C172.789 63.3048 173.764 62.9523 174.394 62.2473C175.025 61.5423 175.369 60.5141 175.34 59.1334C175.34 57.7528 175.025 56.7246 174.394 56.0196C173.764 55.3146 172.761 54.9915 171.471 54.9915ZM173.334 61.4248C172.904 61.8948 172.245 62.1298 171.328 62.1298H169.952V56.1077H171.328C172.245 56.1077 172.904 56.3427 173.334 56.8421C173.764 57.3121 173.964 58.0759 173.964 59.1334C173.964 60.191 173.764 60.9547 173.334 61.4248Z" fill="white"/>
<path d="M183.45 55.3146C182.82 54.9914 182.103 54.8152 181.387 54.8445C180.155 54.8445 179.238 55.197 178.578 55.9314C177.948 56.6658 177.604 57.7234 177.604 59.1628C177.575 59.9853 177.719 60.8078 178.034 61.5422C178.292 62.1591 178.75 62.6585 179.324 62.9523C179.954 63.2754 180.671 63.4516 181.387 63.4223C182.619 63.4223 183.565 63.0698 184.196 62.3354C184.826 61.601 185.17 60.5434 185.17 59.1334C185.199 58.3109 185.055 57.4884 184.74 56.7246C184.454 56.1371 183.995 55.6377 183.45 55.3146ZM183.508 60.9253C183.365 61.3366 183.078 61.6891 182.705 61.9241C181.846 62.3354 180.871 62.3354 180.011 61.9241C179.639 61.6891 179.352 61.3366 179.209 60.9253C178.865 59.7797 178.865 58.5165 179.209 57.3709C179.352 56.9596 179.639 56.6071 180.011 56.3721C180.413 56.1371 180.871 56.0196 181.358 56.0489C181.817 56.0196 182.304 56.1371 182.705 56.3721C183.078 56.6071 183.365 56.9596 183.508 57.3709C183.708 57.929 183.794 58.5459 183.766 59.1628C183.794 59.7503 183.708 60.3378 183.508 60.9253Z" fill="white"/>
<path d="M193.338 61.1016L189.011 54.9915H187.721V63.3048H189.011V57.1065L193.395 63.3048H194.599V54.9915H193.338V61.1016Z" fill="white"/>
<path d="M197.494 63.3048H202.824V62.1298H198.841V59.721H202.309V58.5459H198.841V56.1371H202.824V54.9915H197.494V63.3048Z" fill="white"/>
<path d="M210.133 59.2803C209.903 59.104 209.645 58.9278 209.387 58.8103C209.101 58.6928 208.814 58.5753 208.499 58.4872C208.184 58.399 207.869 58.2521 207.611 58.164C207.381 58.0759 207.181 57.929 207.009 57.7528C206.865 57.5471 206.779 57.3121 206.808 57.0477C206.808 56.8421 206.865 56.6365 206.98 56.4602C207.095 56.284 207.267 56.1371 207.467 56.0783C207.725 55.9902 208.012 55.9315 208.298 55.9608C208.585 55.9608 208.843 56.0196 209.101 56.0783C209.33 56.1371 209.559 56.2546 209.789 56.3721C209.989 56.4896 210.19 56.6071 210.391 56.754V55.4027C210.133 55.2852 209.903 55.1677 209.703 55.0796C209.473 54.9914 209.244 54.9327 209.015 54.8739C208.728 54.8152 208.442 54.8152 208.155 54.8152C207.725 54.8152 207.295 54.8739 206.894 55.0208C206.579 55.1383 206.264 55.3146 206.034 55.579C205.834 55.7846 205.662 56.049 205.547 56.3427C205.432 56.6071 205.404 56.9009 205.404 57.1946C205.404 57.5178 205.461 57.8703 205.576 58.1934C205.69 58.4578 205.862 58.6634 206.063 58.8397C206.264 59.0159 206.493 59.1628 206.751 59.2509C207.009 59.3684 207.267 59.4566 207.525 59.5741C207.869 59.6916 208.184 59.8091 208.47 59.9559C208.728 60.0734 208.986 60.2203 209.187 60.426C209.387 60.6022 209.473 60.8666 209.473 61.131C209.502 61.4541 209.359 61.8066 209.101 62.0122C208.786 62.2473 208.384 62.3648 207.983 62.3354C207.496 62.3354 207.009 62.2473 206.522 62.071C206.12 61.9241 205.719 61.7185 205.375 61.4247V62.8054C205.633 62.9523 205.891 63.0698 206.149 63.1579C206.407 63.246 206.693 63.3342 206.98 63.3635C207.324 63.4223 207.697 63.4223 208.04 63.4223C208.585 63.4517 209.158 63.3342 209.645 63.0698C210.018 62.8641 210.333 62.541 210.534 62.1591C210.734 61.7772 210.82 61.366 210.82 60.9547C210.82 60.6022 210.763 60.2791 210.62 59.9559C210.534 59.6916 210.362 59.4566 210.133 59.2803Z" fill="white"/>
<path d="M214.776 54.9915H213.429V63.3048H214.776V54.9915Z" fill="white"/>
<path d="M223.173 63.3048H224.577L221.511 54.9915H220.078L216.925 63.3048H218.272L219.075 61.0429H222.399L223.173 63.3048ZM219.447 59.9266L220.708 56.3721L221.969 59.956L219.447 59.9266Z" fill="white"/>
<path d="M65.0913 32.6944C67.3009 29.9861 68.7818 26.7114 69.3459 23.2152C69.3459 23.166 69.2754 23.0675 69.2049 23.0182C69.1344 22.969 69.1108 22.969 69.0873 23.0182C66.0786 31.5619 61.1658 35.8213 54.2551 38.7759C53.973 37.5941 53.7145 36.3876 53.5264 35.1812C56.1826 34.4179 58.7682 33.31 60.8603 31.7096C63.1403 29.9615 65.0443 27.7209 66.4312 25.1357C67.724 22.772 68.6642 20.1868 69.2284 17.5277C69.3694 16.8875 69.2989 16.6659 69.0873 16.4936L68.9933 16.4197C68.8993 16.3459 68.8523 16.4197 68.8288 16.5428C68.6877 17.183 68.4997 17.8231 68.2646 18.4633C65.5144 26.1698 61.1423 30.8232 53.2208 32.7437C53.1033 31.3895 53.0563 30.0107 53.1268 28.6565C58.6977 27.4255 63.3989 23.3629 65.9611 18.094C67.1363 15.6318 68.0061 13.022 68.5702 10.3382C68.6407 10.092 68.5467 9.79657 68.3352 9.64884C68.2881 9.5996 68.2176 9.57498 68.1471 9.57498C68.0061 9.50112 67.865 9.47649 67.724 9.52574C65.1618 10.1167 62.6702 11.0276 60.3196 12.2587C55.2894 14.9178 51.4579 19.8421 50.2356 25.6281C48.9428 25.6774 47.6264 25.6527 46.3336 25.5296C48.1671 17.2815 52.5862 12.7265 59.9435 9.87044C60.5312 9.62422 61.1423 9.42725 61.777 9.27952C61.871 9.2549 61.965 9.18104 61.8945 9.10717L61.824 9.00869C61.6595 8.7871 61.4479 8.73785 60.8368 8.86096C58.2981 9.45187 55.8535 10.4367 53.5734 11.7909C51.1053 13.2436 48.9663 15.2379 47.2973 17.6262C45.793 19.7928 44.7352 22.4766 44.0065 25.2095C42.8547 25.0126 41.7029 24.7417 40.5746 24.4463C43.3954 17.2568 47.4619 12.1356 55.5949 9.00869C55.6419 8.98407 55.6419 8.93482 55.5949 8.88558C55.5479 8.83634 55.4539 8.73785 55.4069 8.73785C52.069 9.35339 48.9193 10.8799 46.3571 13.1943C43.1838 16.0012 40.5746 19.5466 38.5531 23.8554C37.5424 23.5353 36.5316 23.1906 35.5444 22.8459C32.5356 21.7379 24.7787 18.0201 21.7699 15.3118C20.8297 14.4746 20.383 14.3515 19.8659 14.7208C19.6074 14.9671 19.3488 15.2133 19.1372 15.5087C17.9619 17.2568 17.0452 19.2266 16.4576 21.2947C16.4105 21.4671 16.6926 21.6394 16.9747 21.5163C18.3615 20.8516 24.4026 23.6092 26.1655 24.3478C27.2938 24.8156 28.4456 25.2342 29.5974 25.6281C31.995 26.4652 34.4161 27.2285 36.8842 27.844C36.7432 28.238 36.6021 28.6565 36.4611 29.0751C36.038 30.3554 35.7089 31.6357 35.4033 32.916C29.5974 32.005 24.6846 30.4539 21.4643 29.0505C19.2548 28.0902 17.8444 27.844 16.8807 28.3857C16.7161 28.4842 16.5516 28.7796 16.6221 29.2228C16.8807 30.7001 17.3273 32.1281 17.9619 33.4823C18.5026 34.6149 18.8081 34.2456 19.3253 34.1225C20.054 33.9501 20.9237 34.1717 21.6054 34.3194C22.9687 34.5903 24.332 34.9596 25.6719 35.2551C28.6571 35.9198 31.6894 36.3384 34.7452 36.5354C34.4866 38.2589 34.3221 39.9331 34.228 41.5335C33.8284 41.5089 33.4523 41.5089 33.0763 41.4843C28.6336 41.2134 23.6034 39.9331 21.9815 39.4653C21.8169 39.4161 21.8169 39.9085 21.9344 40.0316C22.6631 40.8933 24.0735 42.4199 24.4026 42.7892C25.1783 43.7494 26.2125 44.4388 27.3408 44.8081C28.7982 45.3006 30.3261 45.3991 31.8304 45.4483C32.5356 45.4729 33.3113 45.4975 34.1105 45.4729C34.1105 46.3347 34.1105 47.1718 34.1575 47.9351C34.2045 49.5108 34.2986 51.1358 34.7687 52.6377C35.1213 53.8196 35.8029 54.9029 36.6962 55.7154C37.0488 56.0601 38.5296 57.5374 39.3288 58.276C39.4464 58.3991 39.9165 58.3991 39.8695 58.2268C39.4464 56.5033 38.2005 51.2589 37.942 46.6055C37.9185 46.1869 37.895 45.7438 37.8715 45.3252C39.3993 45.2267 40.9978 45.0544 42.6432 44.7835C42.8312 48.0089 43.2308 51.2097 43.8655 54.3612C44.1475 55.7893 44.5001 57.1927 44.7587 58.6453C44.8997 59.384 45.1348 60.2704 44.9467 61.0336C44.8292 61.5753 44.4766 61.8954 45.5579 62.4617C46.8507 63.1264 48.2141 63.5942 49.6244 63.8651C50.071 63.9389 50.3531 63.7666 50.4236 63.5942C50.9408 62.5601 50.7057 61.1075 49.789 58.7438C48.4491 55.3707 46.9448 50.2002 46.075 44.0941C47.3444 43.774 48.5902 43.4047 49.836 42.9615C50.2121 42.8384 50.5647 42.6907 50.9173 42.543C51.5049 45.1282 52.2336 47.6888 53.0328 50.2248C53.4089 51.4313 53.832 52.6377 54.2786 53.8196C54.9603 55.6415 57.5929 61.9692 56.9818 63.4465C56.8643 63.742 57.0053 64.0374 57.1933 63.9882C59.1678 63.3727 61.0248 62.437 62.6937 61.1813C62.9758 60.9598 63.2344 60.7135 63.4459 60.4181C63.7985 59.901 63.681 59.4086 62.8818 58.4238C60.3196 55.2722 56.7467 47.1718 55.7125 43.9956C55.3599 42.9369 55.0308 41.8782 54.7487 40.7949C59.0033 38.8005 62.3881 36.0676 65.0913 32.6944ZM59.4969 14.4993C61.6125 12.7758 64.0806 11.5447 66.5957 10.6829L67.8415 10.2644C67.724 10.6829 67.6065 11.0769 67.4654 11.4954C66.6192 14.1546 65.4674 16.7398 63.822 18.9311C61.1658 22.5012 57.4989 24.4217 53.5264 25.1849C54.2786 21.0732 56.1121 17.2815 59.4969 14.4993ZM49.789 29.1243C49.6949 30.3554 49.6949 31.5865 49.7185 32.8422C49.7185 33.0145 49.7185 33.1622 49.742 33.3346C48.3551 33.4823 46.9212 33.5808 45.4874 33.63C45.5344 32.1281 45.6284 30.6262 45.7695 29.1736L46.3101 29.1982C47.4854 29.2228 48.6372 29.1982 49.789 29.1243ZM39.3053 28.3857C40.5982 28.6319 41.891 28.8535 43.2073 29.0012C42.9487 30.6262 42.7607 32.202 42.6667 33.63C41.4209 33.5808 40.175 33.5069 38.9527 33.3838C38.7412 33.3592 38.5531 33.3346 38.3416 33.31C38.5531 31.6603 38.8822 30.0107 39.3053 28.3857ZM37.8009 41.6812C37.8009 40.0808 37.848 38.4066 37.989 36.7323C39.4934 36.7816 41.0213 36.757 42.5256 36.7323C42.5021 38.3081 42.4786 39.9085 42.5256 41.4843C40.9272 41.6074 39.3288 41.6812 37.8009 41.6812ZM45.7695 41.1396C45.746 40.9426 45.7224 40.7702 45.7224 40.5733C45.6049 39.2683 45.5344 37.9388 45.4874 36.6092C46.8742 36.5107 48.3551 36.3138 49.9065 36.0429C50.0475 37.4217 50.2356 38.7759 50.4706 40.1301C48.9193 40.5733 47.3679 40.8933 45.7695 41.1396Z" fill="url(#paint0_linear_98_68)"/>
<defs>
<linearGradient id="paint0_linear_98_68" x1="30.4964" y1="49.3602" x2="70.1477" y2="11.5051" gradientUnits="userSpaceOnUse">
<stop stop-color="#1751A4"/>
<stop offset="0.52" stop-color="#307F75"/>
<stop offset="1" stop-color="#49AB48"/>
</linearGradient>
</defs>
</svg>
